<svg xmlns="http://www.w3.org/2000/svg" xmlns:xlink="http://www.w3.org/1999/xlink" width="2000" zoomAndPan="magnify" viewBox="0 0 1500 1499.999933" height="2000" preserveAspectRatio="xMidYMid meet" version="1.0"><defs><g/><clipPath id="b2c0f68415"><path d="M 0.441406 259 L 1227.320312 259 L 1227.320312 343 L 0.441406 343 Z M 0.441406 259 " clip-rule="nonzero"/></clipPath><clipPath id="a862305cfc"><path d="M 758 279 L 985 279 L 985 366 L 758 366 Z M 758 279 " clip-rule="nonzero"/></clipPath><clipPath id="c3511e6bb6"><path d="M 466.734375 1 L 498 1 L 498 33.265625 L 466.734375 33.265625 Z M 466.734375 1 " clip-rule="nonzero"/></clipPath><clipPath id="ec11a388c4"><path d="M 467 0.0625 L 498.351562 0.0625 L 498.351562 33 L 467 33 Z M 467 0.0625 " clip-rule="nonzero"/></clipPath><clipPath id="464bcef511"><path d="M 251 275 L 478 275 L 478 366 L 251 366 Z M 251 275 " clip-rule="nonzero"/></clipPath><clipPath id="8e71d2709d"><rect x="0" width="1228" y="0" height="366"/></clipPath></defs><g transform="matrix(1, 0, 0, 1, 115, 552)"><g clip-path="url(#8e71d2709d)"><g fill="#000000" fill-opacity="1"><g transform="translate(0.446469, 261.422137)"><g><path d="M 149.25 -230.203125 C 168.851562 -230.203125 185.875 -225.878906 200.3125 -217.234375 C 214.75 -208.585938 225.757812 -196.566406 233.34375 -181.171875 C 240.9375 -165.785156 244.734375 -148.289062 244.734375 -128.6875 C 244.734375 -107.40625 240.304688 -87.066406 231.453125 -67.671875 C 222.609375 -48.273438 209.222656 -31.726562 191.296875 -18.03125 C 196.359375 -12.125 201.101562 -7.378906 205.53125 -3.796875 C 209.957031 -0.210938 215.546875 3.6875 222.296875 7.90625 L 209.015625 25.921875 C 202.054688 21.285156 195.675781 16.488281 189.875 11.53125 C 184.082031 6.582031 178.128906 0.523438 172.015625 -6.640625 C 156.628906 0.316406 141.976562 3.796875 128.0625 3.796875 C 112.457031 3.796875 97.117188 0.582031 82.046875 -5.84375 C 66.984375 -12.28125 54.390625 -23.140625 44.265625 -38.421875 C 34.148438 -53.703125 29.09375 -73.882812 29.09375 -98.96875 C 29.09375 -121.3125 34.046875 -142.550781 43.953125 -162.6875 C 53.859375 -182.820312 67.925781 -199.109375 86.15625 -211.546875 C 104.394531 -223.984375 125.425781 -230.203125 149.25 -230.203125 Z M 59.125 -96.4375 C 59.125 -78.726562 62.757812 -64.234375 70.03125 -52.953125 C 77.3125 -41.679688 85.90625 -33.566406 95.8125 -28.609375 C 105.71875 -23.660156 114.78125 -21.1875 123 -21.1875 C 129.113281 -21.1875 134.015625 -21.5 137.703125 -22.125 C 141.390625 -22.757812 144.550781 -23.5 147.1875 -24.34375 C 149.820312 -25.1875 151.773438 -25.820312 153.046875 -26.25 C 147.984375 -30.882812 143.34375 -34.726562 139.125 -37.78125 C 134.914062 -40.84375 129.960938 -43.847656 124.265625 -46.796875 L 135.015625 -65.765625 C 142.390625 -62.609375 148.5 -59.179688 153.34375 -55.484375 C 158.195312 -51.796875 164.738281 -45.84375 172.96875 -37.625 C 186.25 -47.957031 196.523438 -61.710938 203.796875 -78.890625 C 211.066406 -96.066406 214.703125 -113.300781 214.703125 -130.59375 C 214.703125 -146.613281 211.59375 -160.207031 205.375 -171.375 C 199.15625 -182.550781 191.09375 -190.984375 181.1875 -196.671875 C 171.28125 -202.367188 160.738281 -205.21875 149.5625 -205.21875 C 132.90625 -205.21875 117.617188 -200.367188 103.703125 -190.671875 C 89.796875 -180.972656 78.890625 -167.796875 70.984375 -151.140625 C 63.078125 -134.492188 59.125 -116.257812 59.125 -96.4375 Z M 59.125 -96.4375 "/></g></g></g><g fill="#00b4d8" fill-opacity="1"><g transform="translate(235.790649, 277.13487)"><g><path d="M 211.546875 0 L 177.390625 0 L 150.828125 -68.9375 L 56.28125 -68.9375 L 31.625 0 L -0.3125 0 L 86.640625 -226.40625 L 118.890625 -226.40625 Z M 89.796875 -159.359375 L 65.140625 -92.96875 L 141.65625 -92.96875 L 113.828125 -167.59375 C 110.460938 -176.445312 106.566406 -188.144531 102.140625 -202.6875 C 102.140625 -201.632812 100.875 -196.3125 98.34375 -186.71875 C 95.8125 -177.125 92.960938 -168.003906 89.796875 -159.359375 Z M 89.796875 -159.359375 "/></g></g></g><g fill="#00b4d8" fill-opacity="1"><g transform="translate(446.696027, 277.13487)"><g><path d="M 49.015625 0 L 21.1875 0 L 21.1875 -226.40625 L 49.015625 -226.40625 Z M 49.015625 0 "/></g></g></g><g clip-path="url(#b2c0f68415)"><path stroke-linecap="butt" transform="matrix(1.580934, 0.0144505, -0.0144505, 1.580934, 36.513292, 292.52065)" fill="none" stroke-linejoin="miter" d="M -0.00000376901 2.000681 L 741.336554 1.99957 " stroke="#000000" stroke-width="4" stroke-opacity="1" stroke-miterlimit="4"/></g><g clip-path="url(#a862305cfc)"><path stroke-linecap="round" transform="matrix(1.580957, 0.0116616, -0.0116616, 1.580957, 807.369946, 328.723263)" fill="none" stroke-linejoin="miter" d="M 3.000181 2.999292 L 78.337776 2.999511 " stroke="#00b4d8" stroke-width="6" stroke-opacity="1" stroke-miterlimit="4"/></g><path stroke-linecap="round" transform="matrix(1.580957, 0.0116616, -0.0116616, 1.580957, 807.369946, 328.723263)" fill-opacity="1" fill="#00b4d8" fill-rule="nonzero" stroke-linejoin="round" d="M 81.33768 -5.999085 L 93.338093 3.000051 L 81.337029 12.000801 Z M 81.33768 -5.999085 " stroke="#00b4d8" stroke-width="6" stroke-opacity="1" stroke-miterlimit="4"/><g fill="#001b44" fill-opacity="1"><g transform="translate(46.065002, 350.136023)"><g><path d="M 11.640625 -6.375 L 30.609375 -6.375 L 30.609375 0 L 4.0625 0 L 4.0625 -37.71875 L 11.640625 -37.71875 Z M 11.640625 -6.375 "/></g></g></g><g fill="#001b44" fill-opacity="1"><g transform="translate(78.259606, 350.136023)"><g><path d="M 31.828125 -31.34375 L 11.4375 -31.34375 L 11.4375 -22.96875 L 30.40625 -22.96875 L 30.40625 -16.59375 L 11.4375 -16.59375 L 11.4375 -6.375 L 32.515625 -6.375 L 32.515625 0 L 3.84375 0 L 3.84375 -37.71875 L 31.828125 -37.71875 Z M 31.828125 -31.34375 "/></g></g></g><g fill="#001b44" fill-opacity="1"><g transform="translate(113.40493, 350.136023)"><g><path d="M 37.875 0 L 29.5625 0 L 26.296875 -8.53125 L 11.21875 -8.53125 L 8.109375 0 L 0 0 L 14.703125 -37.71875 L 22.765625 -37.71875 Z M 13.546875 -14.90625 L 23.875 -14.90625 L 18.65625 -28.921875 Z M 13.546875 -14.90625 "/></g></g></g><g fill="#001b44" fill-opacity="1"><g transform="translate(151.448287, 350.136023)"><g><path d="M 29.140625 -36.515625 C 30.710938 -35.847656 32.023438 -34.671875 33.078125 -32.984375 C 34.140625 -31.296875 34.671875 -29.347656 34.671875 -27.140625 C 34.671875 -24.328125 33.800781 -21.960938 32.0625 -20.046875 C 30.320312 -18.128906 27.867188 -16.976562 24.703125 -16.59375 C 26.078125 -15.644531 27.125 -14.863281 27.84375 -14.25 C 28.5625 -13.632812 29.347656 -12.773438 30.203125 -11.671875 C 31.066406 -10.566406 32.132812 -8.992188 33.40625 -6.953125 L 37.71875 0 L 28.609375 0 L 22.5 -9.171875 C 21.125 -11.203125 20.054688 -12.648438 19.296875 -13.515625 C 18.546875 -14.378906 17.75 -14.96875 16.90625 -15.28125 C 16.0625 -15.59375 14.867188 -15.75 13.328125 -15.75 L 11.4375 -15.75 L 11.4375 0 L 3.84375 0 L 3.84375 -37.71875 L 20.34375 -37.71875 C 22.132812 -37.71875 23.753906 -37.640625 25.203125 -37.484375 C 26.660156 -37.328125 27.972656 -37.003906 29.140625 -36.515625 Z M 23.765625 -22.1875 C 24.671875 -22.46875 25.40625 -22.992188 25.96875 -23.765625 C 26.53125 -24.535156 26.8125 -25.5 26.8125 -26.65625 C 26.8125 -28.65625 25.953125 -30.046875 24.234375 -30.828125 C 23.773438 -31.035156 23.210938 -31.171875 22.546875 -31.234375 C 21.878906 -31.304688 20.738281 -31.34375 19.125 -31.34375 L 11.4375 -31.34375 L 11.4375 -21.765625 L 18.125 -21.765625 C 20.863281 -21.765625 22.742188 -21.90625 23.765625 -22.1875 Z M 23.765625 -22.1875 "/></g></g></g><g fill="#001b44" fill-opacity="1"><g transform="translate(189.491643, 350.136023)"><g><path d="M 26.71875 -12.546875 L 26.71875 -37.71875 L 33.765625 -37.71875 L 33.765625 0 L 26.140625 0 L 10.953125 -24.609375 L 10.953125 0 L 3.90625 0 L 3.90625 -37.71875 L 11.28125 -37.71875 Z M 26.71875 -12.546875 "/></g></g></g><g fill="#001b44" fill-opacity="1"><g transform="translate(534.47583, 350.136023)"><g><path d="M 20.078125 -38.359375 C 23.941406 -38.359375 27.207031 -37.414062 29.875 -35.53125 C 32.539062 -33.65625 34.3125 -30.910156 35.1875 -27.296875 L 27.65625 -25.5 C 27.195312 -27.46875 26.265625 -29.015625 24.859375 -30.140625 C 23.460938 -31.265625 21.742188 -31.828125 19.703125 -31.828125 C 16.753906 -31.828125 14.453125 -30.78125 12.796875 -28.6875 C 11.148438 -26.59375 10.328125 -23.40625 10.328125 -19.125 C 10.328125 -15.1875 11.003906 -12 12.359375 -9.5625 C 13.710938 -7.125 16.125 -5.90625 19.59375 -5.90625 C 21.8125 -5.90625 23.601562 -6.601562 24.96875 -8 C 26.34375 -9.40625 27.328125 -11.359375 27.921875 -13.859375 L 35.296875 -11.53125 C 34.273438 -7.425781 32.410156 -4.375 29.703125 -2.375 C 27.003906 -0.375 23.65625 0.625 19.65625 0.625 C 16.25 0.625 13.242188 -0.160156 10.640625 -1.734375 C 8.046875 -3.316406 6.035156 -5.546875 4.609375 -8.421875 C 3.179688 -11.304688 2.46875 -14.679688 2.46875 -18.546875 C 2.46875 -21.984375 3.066406 -25.203125 4.265625 -28.203125 C 5.460938 -31.210938 7.378906 -33.65625 10.015625 -35.53125 C 12.648438 -37.414062 16.003906 -38.359375 20.078125 -38.359375 Z M 20.078125 -38.359375 "/></g></g></g><g fill="#001b44" fill-opacity="1"><g transform="translate(572.519187, 350.136023)"><g><path d="M 20.5 -38.359375 C 24.46875 -38.359375 27.820312 -37.515625 30.5625 -35.828125 C 33.300781 -34.140625 35.351562 -31.820312 36.71875 -28.875 C 38.09375 -25.925781 38.78125 -22.570312 38.78125 -18.8125 C 38.78125 -14.800781 38.050781 -11.335938 36.59375 -8.421875 C 35.132812 -5.515625 33.035156 -3.28125 30.296875 -1.71875 C 27.554688 -0.15625 24.320312 0.625 20.59375 0.625 C 16.695312 0.625 13.367188 -0.179688 10.609375 -1.796875 C 7.859375 -3.410156 5.78125 -5.664062 4.375 -8.5625 C 2.96875 -11.457031 2.265625 -14.820312 2.265625 -18.65625 C 2.265625 -22.625 2.96875 -26.09375 4.375 -29.0625 C 5.78125 -32.03125 7.84375 -34.320312 10.5625 -35.9375 C 13.28125 -37.550781 16.59375 -38.359375 20.5 -38.359375 Z M 10.109375 -18.859375 C 10.109375 -15.910156 10.582031 -13.46875 11.53125 -11.53125 C 12.488281 -9.601562 13.753906 -8.179688 15.328125 -7.265625 C 16.910156 -6.359375 18.648438 -5.90625 20.546875 -5.90625 C 22.304688 -5.90625 23.957031 -6.304688 25.5 -7.109375 C 27.039062 -7.921875 28.328125 -9.300781 29.359375 -11.25 C 30.398438 -13.195312 30.921875 -15.769531 30.921875 -18.96875 C 30.921875 -22.726562 30.09375 -25.8125 28.4375 -28.21875 C 26.789062 -30.625 24.144531 -31.828125 20.5 -31.828125 C 16.875 -31.828125 14.234375 -30.613281 12.578125 -28.1875 C 10.929688 -25.757812 10.109375 -22.648438 10.109375 -18.859375 Z M 10.109375 -18.859375 "/></g></g></g><g fill="#001b44" fill-opacity="1"><g transform="translate(613.513288, 350.136023)"><g><path d="M 29.875 -34.1875 C 33.5625 -30.882812 35.40625 -25.617188 35.40625 -18.390625 C 35.40625 -12.304688 33.769531 -7.546875 30.5 -4.109375 C 27.9375 -1.367188 23.988281 0 18.65625 0 L 3.796875 0 L 3.796875 -37.71875 L 18.5 -37.71875 C 21.164062 -37.71875 23.375 -37.445312 25.125 -36.90625 C 26.882812 -36.363281 28.46875 -35.457031 29.875 -34.1875 Z M 27.5625 -18.8125 C 27.5625 -22.425781 27.128906 -25.132812 26.265625 -26.9375 C 25.398438 -28.75 24.160156 -29.9375 22.546875 -30.5 C 20.929688 -31.0625 18.71875 -31.34375 15.90625 -31.34375 L 11.375 -31.34375 L 11.375 -6.375 L 17.703125 -6.375 C 20.054688 -6.375 21.925781 -6.679688 23.3125 -7.296875 C 24.695312 -7.910156 25.75 -9.113281 26.46875 -10.90625 C 27.195312 -12.695312 27.5625 -15.332031 27.5625 -18.8125 Z M 27.5625 -18.8125 "/></g></g></g><g fill="#001b44" fill-opacity="1"><g transform="translate(651.556645, 350.136023)"><g><path d="M 31.828125 -31.34375 L 11.4375 -31.34375 L 11.4375 -22.96875 L 30.40625 -22.96875 L 30.40625 -16.59375 L 11.4375 -16.59375 L 11.4375 -6.375 L 32.515625 -6.375 L 32.515625 0 L 3.84375 0 L 3.84375 -37.71875 L 31.828125 -37.71875 Z M 31.828125 -31.34375 "/></g></g></g><g fill="#001b44" fill-opacity="1"><g transform="translate(1053.274372, 350.136023)"><g><path d="M 11.640625 -6.375 L 30.609375 -6.375 L 30.609375 0 L 4.0625 0 L 4.0625 -37.71875 L 11.640625 -37.71875 Z M 11.640625 -6.375 "/></g></g></g><g fill="#001b44" fill-opacity="1"><g transform="translate(1085.468975, 350.136023)"><g><path d="M 31.828125 -31.34375 L 11.4375 -31.34375 L 11.4375 -22.96875 L 30.40625 -22.96875 L 30.40625 -16.59375 L 11.4375 -16.59375 L 11.4375 -6.375 L 32.515625 -6.375 L 32.515625 0 L 3.84375 0 L 3.84375 -37.71875 L 31.828125 -37.71875 Z M 31.828125 -31.34375 "/></g></g></g><g fill="#001b44" fill-opacity="1"><g transform="translate(1120.6143, 350.136023)"><g><path d="M 37.875 0 L 29.5625 0 L 26.296875 -8.53125 L 11.21875 -8.53125 L 8.109375 0 L 0 0 L 14.703125 -37.71875 L 22.765625 -37.71875 Z M 13.546875 -14.90625 L 23.875 -14.90625 L 18.65625 -28.921875 Z M 13.546875 -14.90625 "/></g></g></g><g fill="#001b44" fill-opacity="1"><g transform="translate(1158.657656, 350.136023)"><g><path d="M 29.875 -34.1875 C 33.5625 -30.882812 35.40625 -25.617188 35.40625 -18.390625 C 35.40625 -12.304688 33.769531 -7.546875 30.5 -4.109375 C 27.9375 -1.367188 23.988281 0 18.65625 0 L 3.796875 0 L 3.796875 -37.71875 L 18.5 -37.71875 C 21.164062 -37.71875 23.375 -37.445312 25.125 -36.90625 C 26.882812 -36.363281 28.46875 -35.457031 29.875 -34.1875 Z M 27.5625 -18.8125 C 27.5625 -22.425781 27.128906 -25.132812 26.265625 -26.9375 C 25.398438 -28.75 24.160156 -29.9375 22.546875 -30.5 C 20.929688 -31.0625 18.71875 -31.34375 15.90625 -31.34375 L 11.375 -31.34375 L 11.375 -6.375 L 17.703125 -6.375 C 20.054688 -6.375 21.925781 -6.679688 23.3125 -7.296875 C 24.695312 -7.910156 25.75 -9.113281 26.46875 -10.90625 C 27.195312 -12.695312 27.5625 -15.332031 27.5625 -18.8125 Z M 27.5625 -18.8125 "/></g></g></g><g fill="#000000" fill-opacity="1"><g transform="translate(495.190636, 277.13487)"><g><path d="M 217.546875 -200.78125 L 143.875 -200.78125 L 102.140625 0 L 71.78125 0 L 113.828125 -200.78125 L 39.53125 -200.78125 L 44.90625 -226.40625 L 222.921875 -226.40625 Z M 217.546875 -200.78125 "/></g></g></g><g fill="#000000" fill-opacity="1"><g transform="translate(661.511832, 277.13487)"><g><path d="M 104.65625 -167.59375 C 122.582031 -167.59375 137.394531 -163.742188 149.09375 -156.046875 C 160.789062 -148.347656 166.640625 -138.070312 166.640625 -125.21875 C 166.640625 -121.84375 166.269531 -117.148438 165.53125 -111.140625 C 164.789062 -105.140625 163.789062 -99.609375 162.53125 -94.546875 L 153.359375 -53.4375 C 150.617188 -41.84375 149.25 -32.566406 149.25 -25.609375 C 149.25 -16.335938 149.773438 -9.851562 150.828125 -6.15625 C 151.878906 -2.46875 152.40625 -0.414062 152.40625 0 L 124.265625 0 C 123.003906 -4.21875 121.847656 -11.066406 120.796875 -20.546875 C 110.671875 -11.484375 101.023438 -5.160156 91.859375 -1.578125 C 82.691406 2.003906 73.570312 3.796875 64.5 3.796875 C 50.375 3.796875 38.410156 -0.414062 28.609375 -8.84375 C 18.804688 -17.28125 13.90625 -28.878906 13.90625 -43.640625 C 13.90625 -77.148438 38.46875 -94.859375 87.59375 -96.765625 C 101.71875 -97.179688 111.941406 -97.8125 118.265625 -98.65625 C 124.585938 -99.5 130.273438 -100.867188 135.328125 -102.765625 C 136.390625 -106.347656 137.234375 -109.984375 137.859375 -113.671875 C 138.492188 -117.359375 138.8125 -120.046875 138.8125 -121.734375 C 138.8125 -129.742188 135.332031 -135.59375 128.375 -139.28125 C 121.414062 -142.976562 113.085938 -144.828125 103.390625 -144.828125 C 80.203125 -144.828125 65.132812 -134.8125 58.1875 -114.78125 L 29.71875 -117.3125 C 35.414062 -133.96875 44.742188 -146.507812 57.703125 -154.9375 C 70.671875 -163.375 86.320312 -167.59375 104.65625 -167.59375 Z M 92.328125 -76.515625 C 83.265625 -75.890625 75.304688 -74.835938 68.453125 -73.359375 C 61.609375 -71.878906 55.441406 -68.925781 49.953125 -64.5 C 44.472656 -60.070312 41.734375 -53.539062 41.734375 -44.90625 C 41.734375 -37.3125 44.265625 -30.878906 49.328125 -25.609375 C 54.390625 -20.335938 62.191406 -17.703125 72.734375 -17.703125 C 80.316406 -17.703125 87.585938 -19.335938 94.546875 -22.609375 C 101.503906 -25.878906 107.507812 -30.253906 112.5625 -35.734375 C 117.625 -41.421875 121.472656 -47.953125 124.109375 -55.328125 C 126.742188 -62.710938 129.113281 -71.988281 131.21875 -83.15625 C 123 -80 110.035156 -77.785156 92.328125 -76.515625 Z M 92.328125 -76.515625 "/></g></g></g><g fill="#000000" fill-opacity="1"><g transform="translate(837.319025, 277.13487)"><g><path d="M 36.359375 0 L 8.21875 0 L 55.65625 -226.40625 L 83.484375 -226.40625 Z M 36.359375 0 "/></g></g></g><g fill="#000000" fill-opacity="1"><g transform="translate(910.677394, 277.13487)"><g><path d="M 56.59375 -86.640625 L 57.234375 -86 L 138.1875 -163.796875 L 175.171875 -163.796875 L 104.984375 -102.765625 L 147.34375 0 L 116.671875 0 L 84.109375 -84.109375 L 50.28125 -54.703125 L 38.578125 0 L 10.75 0 L 58.1875 -226.40625 L 86 -226.40625 Z M 56.59375 -86.640625 "/></g></g></g><g fill="#000000" fill-opacity="1"><g transform="translate(1068.777446, 277.13487)"><g><path d="M 93.59375 -167.59375 C 112.78125 -167.59375 128.171875 -163.003906 139.765625 -153.828125 C 151.359375 -144.660156 157.257812 -131.960938 157.46875 -115.734375 L 129.640625 -114.15625 C 129.003906 -125.957031 124.835938 -134.226562 117.140625 -138.96875 C 109.453125 -143.707031 100.972656 -146.078125 91.703125 -146.078125 C 82.421875 -146.078125 74.988281 -143.914062 69.40625 -139.59375 C 63.820312 -135.28125 61.03125 -130.488281 61.03125 -125.21875 C 61.03125 -119.3125 63.082031 -114.828125 67.1875 -111.765625 C 71.300781 -108.710938 78.835938 -104.765625 89.796875 -99.921875 C 103.503906 -94.015625 113.890625 -89.109375 120.953125 -85.203125 C 128.015625 -81.304688 133.914062 -76.195312 138.65625 -69.875 C 143.394531 -63.550781 145.765625 -55.648438 145.765625 -46.171875 C 145.765625 -37.734375 143.285156 -29.71875 138.328125 -22.125 C 133.378906 -14.539062 125.84375 -8.320312 115.71875 -3.46875 C 105.601562 1.375 93.378906 3.796875 79.046875 3.796875 C 58.597656 3.796875 42.3125 -1.207031 30.1875 -11.21875 C 18.070312 -21.238281 12.015625 -36.050781 12.015625 -55.65625 L 12.015625 -55.96875 L 40.15625 -57.859375 C 40.15625 -44.160156 43.738281 -34.039062 50.90625 -27.5 C 58.070312 -20.96875 67.976562 -17.703125 80.625 -17.703125 C 91.164062 -17.703125 99.96875 -19.96875 107.03125 -24.5 C 114.09375 -29.03125 117.625 -35.09375 117.625 -42.6875 C 117.625 -49.4375 114.9375 -54.8125 109.5625 -58.8125 C 104.1875 -62.820312 95.492188 -67.460938 83.484375 -72.734375 C 71.460938 -77.992188 62.34375 -82.414062 56.125 -86 C 49.90625 -89.582031 44.84375 -94.113281 40.9375 -99.59375 C 37.039062 -105.082031 35.09375 -112.039062 35.09375 -120.46875 C 35.09375 -127.851562 37.09375 -135.128906 41.09375 -142.296875 C 45.101562 -149.460938 51.484375 -155.46875 60.234375 -160.3125 C 68.984375 -165.164062 80.101562 -167.59375 93.59375 -167.59375 Z M 93.59375 -167.59375 "/></g></g></g><g clip-path="url(#c3511e6bb6)"><path fill="#a40053" d="M 497.425781 17.257812 C 497.425781 18.308594 497.328125 19.347656 497.132812 20.378906 C 496.933594 21.410156 496.644531 22.410156 496.257812 23.378906 C 495.871094 24.351562 495.398438 25.273438 494.839844 26.148438 C 494.28125 27.019531 493.644531 27.828125 492.929688 28.570312 C 492.21875 29.316406 491.445312 29.980469 490.605469 30.5625 C 489.769531 31.144531 488.882812 31.640625 487.953125 32.042969 C 487.019531 32.445312 486.0625 32.746094 485.074219 32.953125 C 484.085938 33.15625 483.085938 33.257812 482.078125 33.257812 C 481.070312 33.257812 480.074219 33.15625 479.085938 32.953125 C 478.097656 32.746094 477.136719 32.445312 476.207031 32.042969 C 475.277344 31.640625 474.390625 31.144531 473.554688 30.5625 C 472.714844 29.980469 471.941406 29.316406 471.226562 28.570312 C 470.515625 27.828125 469.878906 27.019531 469.320312 26.148438 C 468.757812 25.273438 468.285156 24.351562 467.902344 23.378906 C 467.515625 22.410156 467.222656 21.410156 467.027344 20.378906 C 466.832031 19.347656 466.734375 18.308594 466.734375 17.257812 C 466.734375 16.207031 466.832031 15.164062 467.027344 14.132812 C 467.222656 13.101562 467.515625 12.101562 467.902344 11.132812 C 468.285156 10.160156 468.757812 9.238281 469.320312 8.363281 C 469.878906 7.492188 470.515625 6.683594 471.226562 5.941406 C 471.941406 5.195312 472.714844 4.535156 473.554688 3.949219 C 474.390625 3.367188 475.277344 2.875 476.207031 2.472656 C 477.136719 2.070312 478.097656 1.765625 479.085938 1.558594 C 480.074219 1.355469 481.070312 1.253906 482.078125 1.253906 C 483.085938 1.253906 484.085938 1.355469 485.074219 1.558594 C 486.0625 1.765625 487.019531 2.070312 487.953125 2.472656 C 488.882812 2.875 489.769531 3.367188 490.605469 3.949219 C 491.445312 4.535156 492.21875 5.195312 492.929688 5.941406 C 493.644531 6.683594 494.28125 7.492188 494.839844 8.363281 C 495.398438 9.238281 495.871094 10.160156 496.257812 11.132812 C 496.644531 12.101562 496.933594 13.101562 497.132812 14.132812 C 497.328125 15.164062 497.425781 16.207031 497.425781 17.257812 Z M 497.425781 17.257812 " fill-opacity="1" fill-rule="nonzero"/></g><g clip-path="url(#ec11a388c4)"><path fill="#ff0081" d="M 498.351562 16.070312 C 498.351562 17.121094 498.253906 18.164062 498.058594 19.195312 C 497.859375 20.222656 497.570312 21.226562 497.183594 22.195312 C 496.800781 23.167969 496.328125 24.089844 495.765625 24.960938 C 495.207031 25.835938 494.570312 26.644531 493.859375 27.386719 C 493.144531 28.128906 492.371094 28.792969 491.53125 29.378906 C 490.695312 29.960938 489.808594 30.453125 488.878906 30.855469 C 487.949219 31.257812 486.988281 31.5625 486 31.769531 C 485.011719 31.972656 484.015625 32.074219 483.007812 32.074219 C 482 32.074219 481 31.972656 480.011719 31.769531 C 479.023438 31.5625 478.0625 31.257812 477.132812 30.855469 C 476.203125 30.453125 475.316406 29.960938 474.480469 29.378906 C 473.640625 28.792969 472.867188 28.128906 472.15625 27.386719 C 471.441406 26.644531 470.804688 25.835938 470.246094 24.960938 C 469.6875 24.089844 469.214844 23.167969 468.828125 22.195312 C 468.441406 21.226562 468.152344 20.222656 467.953125 19.195312 C 467.757812 18.164062 467.660156 17.121094 467.660156 16.070312 C 467.660156 15.019531 467.757812 13.980469 467.953125 12.949219 C 468.152344 11.917969 468.441406 10.917969 468.828125 9.949219 C 469.214844 8.976562 469.6875 8.054688 470.246094 7.179688 C 470.804688 6.308594 471.441406 5.5 472.15625 4.753906 C 472.867188 4.011719 473.640625 3.347656 474.480469 2.765625 C 475.316406 2.183594 476.203125 1.6875 477.132812 1.285156 C 478.0625 0.882812 479.023438 0.582031 480.011719 0.375 C 481 0.171875 482 0.0703125 483.007812 0.0703125 C 484.015625 0.0703125 485.011719 0.171875 486 0.375 C 486.988281 0.582031 487.949219 0.882812 488.878906 1.285156 C 489.808594 1.6875 490.695312 2.183594 491.53125 2.765625 C 492.371094 3.347656 493.144531 4.011719 493.859375 4.753906 C 494.570312 5.5 495.207031 6.308594 495.765625 7.179688 C 496.328125 8.054688 496.800781 8.976562 497.183594 9.949219 C 497.570312 10.917969 497.859375 11.917969 498.058594 12.949219 C 498.253906 13.980469 498.351562 15.019531 498.351562 16.070312 Z M 498.351562 16.070312 " fill-opacity="1" fill-rule="nonzero"/></g><path fill="#ffffff" d="M 472.917969 16.070312 L 478.957031 21.433594 C 479.253906 21.699219 479.253906 22.128906 478.957031 22.394531 C 478.660156 22.65625 478.175781 22.65625 477.878906 22.394531 L 471.316406 16.566406 C 471.164062 16.429688 471.089844 16.25 471.09375 16.070312 C 471.089844 15.894531 471.164062 15.714844 471.316406 15.578125 L 477.878906 9.75 C 478.175781 9.484375 478.660156 9.484375 478.957031 9.75 C 479.253906 10.015625 479.253906 10.445312 478.957031 10.707031 Z M 472.917969 16.070312 " fill-opacity="1" fill-rule="evenodd"/><path fill="#ffffff" d="M 493.097656 16.136719 L 487.054688 21.554688 C 486.757812 21.820312 486.757812 22.253906 487.054688 22.519531 C 487.351562 22.789062 487.835938 22.789062 488.132812 22.519531 L 494.695312 16.636719 C 494.847656 16.5 494.921875 16.316406 494.917969 16.136719 C 494.921875 15.957031 494.847656 15.773438 494.695312 15.636719 L 488.132812 9.753906 C 487.835938 9.484375 487.351562 9.484375 487.054688 9.753906 C 486.757812 10.019531 486.757812 10.453125 487.054688 10.71875 Z M 493.097656 16.136719 " fill-opacity="1" fill-rule="evenodd"/><path fill="#ffffff" d="M 484.925781 9.398438 C 484.519531 9.285156 484.101562 9.535156 483.992188 9.960938 L 480.957031 21.773438 C 480.847656 22.195312 481.089844 22.632812 481.496094 22.746094 C 481.902344 22.859375 482.320312 22.605469 482.429688 22.183594 L 485.464844 10.371094 C 485.574219 9.949219 485.332031 9.511719 484.925781 9.398438 Z M 484.925781 9.398438 " fill-opacity="1" fill-rule="evenodd"/><g clip-path="url(#464bcef511)"><path stroke-linecap="round" transform="matrix(1.580957, 0.0116616, -0.0116616, 1.580957, 300.234099, 324.437893)" fill="none" stroke-linejoin="miter" d="M 2.99963 2.999431 L 78.337225 2.99965 " stroke="#00b4d8" stroke-width="6" stroke-opacity="1" stroke-miterlimit="4"/></g><path stroke-linecap="round" transform="matrix(1.580957, 0.0116616, -0.0116616, 1.580957, 300.234099, 324.437893)" fill-opacity="1" fill="#00b4d8" fill-rule="nonzero" stroke-linejoin="round" d="M 81.337129 -5.998945 L 93.337542 3.00019 L 81.336478 12.00094 Z M 81.337129 -5.998945 " stroke="#00b4d8" stroke-width="6" stroke-opacity="1" stroke-miterlimit="4"/></g></g></svg>