<svg xmlns="http://www.w3.org/2000/svg" xmlns:xlink="http://www.w3.org/1999/xlink" width="2000" zoomAndPan="magnify" viewBox="0 0 1500 1499.999933" height="2000" preserveAspectRatio="xMidYMid meet" version="1.0"><defs><g/><clipPath id="7662031498"><path d="M 535.496094 275 L 601 275 L 601 340.191406 L 535.496094 340.191406 Z M 535.496094 275 " clip-rule="nonzero"/></clipPath><clipPath id="5e41afd2b4"><path d="M 537 273.441406 L 602.246094 273.441406 L 602.246094 338 L 537 338 Z M 537 273.441406 " clip-rule="nonzero"/></clipPath></defs><g clip-path="url(#7662031498)"><path fill="#a40053" d="M 600.285156 308.003906 C 600.285156 309.058594 600.234375 310.109375 600.128906 311.160156 C 600.027344 312.210938 599.871094 313.25 599.664062 314.285156 C 599.457031 315.316406 599.199219 316.339844 598.890625 317.347656 C 598.582031 318.355469 598.226562 319.347656 597.820312 320.320312 C 597.414062 321.296875 596.960938 322.246094 596.460938 323.175781 C 595.960938 324.105469 595.417969 325.007812 594.828125 325.886719 C 594.238281 326.761719 593.605469 327.609375 592.933594 328.421875 C 592.261719 329.238281 591.546875 330.015625 590.796875 330.761719 C 590.046875 331.507812 589.261719 332.214844 588.441406 332.882812 C 587.621094 333.550781 586.773438 334.179688 585.890625 334.765625 C 585.007812 335.351562 584.097656 335.890625 583.164062 336.390625 C 582.226562 336.886719 581.269531 337.335938 580.289062 337.738281 C 579.308594 338.144531 578.3125 338.496094 577.296875 338.804688 C 576.28125 339.109375 575.253906 339.363281 574.210938 339.570312 C 573.171875 339.777344 572.125 339.929688 571.066406 340.035156 C 570.011719 340.136719 568.953125 340.1875 567.894531 340.1875 C 566.832031 340.1875 565.773438 340.136719 564.71875 340.035156 C 563.660156 339.929688 562.613281 339.777344 561.574219 339.570312 C 560.53125 339.363281 559.503906 339.109375 558.488281 338.804688 C 557.472656 338.496094 556.476562 338.144531 555.496094 337.738281 C 554.515625 337.335938 553.558594 336.886719 552.621094 336.390625 C 551.6875 335.890625 550.777344 335.351562 549.894531 334.765625 C 549.015625 334.179688 548.164062 333.550781 547.34375 332.882812 C 546.523438 332.214844 545.738281 331.507812 544.988281 330.761719 C 544.238281 330.015625 543.527344 329.238281 542.851562 328.421875 C 542.179688 327.609375 541.546875 326.761719 540.957031 325.886719 C 540.371094 325.007812 539.824219 324.105469 539.324219 323.175781 C 538.824219 322.246094 538.371094 321.296875 537.964844 320.320312 C 537.558594 319.347656 537.203125 318.355469 536.894531 317.347656 C 536.585938 316.339844 536.328125 315.316406 536.121094 314.285156 C 535.914062 313.25 535.757812 312.210938 535.65625 311.160156 C 535.550781 310.109375 535.5 309.058594 535.5 308.003906 C 535.5 306.953125 535.550781 305.898438 535.65625 304.851562 C 535.757812 303.800781 535.914062 302.761719 536.121094 301.726562 C 536.328125 300.691406 536.585938 299.671875 536.894531 298.664062 C 537.203125 297.65625 537.558594 296.664062 537.964844 295.6875 C 538.371094 294.714844 538.824219 293.765625 539.324219 292.835938 C 539.824219 291.90625 540.371094 291 540.957031 290.125 C 541.546875 289.25 542.179688 288.402344 542.851562 287.589844 C 543.527344 286.773438 544.238281 285.992188 544.988281 285.25 C 545.738281 284.503906 546.523438 283.796875 547.34375 283.128906 C 548.164062 282.457031 549.015625 281.832031 549.894531 281.246094 C 550.777344 280.660156 551.6875 280.117188 552.621094 279.621094 C 553.558594 279.125 554.515625 278.675781 555.496094 278.273438 C 556.476562 277.867188 557.472656 277.515625 558.488281 277.207031 C 559.503906 276.902344 560.53125 276.644531 561.574219 276.441406 C 562.613281 276.234375 563.660156 276.082031 564.71875 275.976562 C 565.773438 275.875 566.832031 275.820312 567.894531 275.820312 C 568.953125 275.820312 570.011719 275.875 571.066406 275.976562 C 572.125 276.082031 573.171875 276.234375 574.210938 276.441406 C 575.253906 276.644531 576.28125 276.902344 577.296875 277.207031 C 578.3125 277.515625 579.308594 277.867188 580.289062 278.273438 C 581.269531 278.675781 582.226562 279.125 583.164062 279.621094 C 584.097656 280.117188 585.007812 280.660156 585.890625 281.246094 C 586.773438 281.832031 587.621094 282.457031 588.441406 283.128906 C 589.261719 283.796875 590.046875 284.503906 590.796875 285.25 C 591.546875 285.992188 592.261719 286.773438 592.933594 287.589844 C 593.605469 288.402344 594.238281 289.25 594.828125 290.125 C 595.417969 291 595.960938 291.90625 596.460938 292.835938 C 596.960938 293.765625 597.414062 294.714844 597.820312 295.6875 C 598.226562 296.664062 598.582031 297.65625 598.890625 298.664062 C 599.199219 299.671875 599.457031 300.691406 599.664062 301.726562 C 599.871094 302.761719 600.027344 303.800781 600.128906 304.851562 C 600.234375 305.898438 600.285156 306.953125 600.285156 308.003906 Z M 600.285156 308.003906 " fill-opacity="1" fill-rule="nonzero"/></g><g clip-path="url(#5e41afd2b4)"><path fill="#ff0081" d="M 602.242188 305.625 C 602.242188 306.675781 602.191406 307.730469 602.085938 308.777344 C 601.984375 309.828125 601.828125 310.867188 601.621094 311.902344 C 601.414062 312.9375 601.15625 313.957031 600.847656 314.964844 C 600.539062 315.976562 600.183594 316.964844 599.777344 317.941406 C 599.371094 318.914062 598.917969 319.867188 598.417969 320.792969 C 597.917969 321.722656 597.371094 322.628906 596.785156 323.503906 C 596.195312 324.378906 595.5625 325.226562 594.890625 326.039062 C 594.214844 326.855469 593.503906 327.636719 592.753906 328.382812 C 592.003906 329.125 591.21875 329.832031 590.398438 330.5 C 589.578125 331.171875 588.726562 331.796875 587.847656 332.382812 C 586.964844 332.96875 586.054688 333.511719 585.121094 334.007812 C 584.183594 334.503906 583.226562 334.953125 582.246094 335.359375 C 581.265625 335.761719 580.269531 336.117188 579.253906 336.421875 C 578.238281 336.726562 577.210938 336.984375 576.167969 337.1875 C 575.128906 337.394531 574.078125 337.550781 573.023438 337.652344 C 571.96875 337.753906 570.910156 337.808594 569.847656 337.808594 C 568.789062 337.808594 567.730469 337.753906 566.675781 337.652344 C 565.617188 337.550781 564.570312 337.394531 563.53125 337.1875 C 562.488281 336.984375 561.460938 336.726562 560.445312 336.421875 C 559.429688 336.117188 558.433594 335.761719 557.453125 335.359375 C 556.472656 334.953125 555.515625 334.503906 554.578125 334.007812 C 553.644531 333.511719 552.734375 332.96875 551.851562 332.382812 C 550.96875 331.796875 550.117188 331.171875 549.300781 330.5 C 548.480469 329.832031 547.695312 329.125 546.945312 328.382812 C 546.191406 327.636719 545.480469 326.855469 544.808594 326.039062 C 544.136719 325.226562 543.503906 324.378906 542.914062 323.503906 C 542.324219 322.628906 541.78125 321.722656 541.28125 320.792969 C 540.78125 319.867188 540.328125 318.914062 539.921875 317.941406 C 539.515625 316.964844 539.160156 315.976562 538.851562 314.964844 C 538.542969 313.957031 538.285156 312.9375 538.078125 311.902344 C 537.871094 310.867188 537.714844 309.828125 537.613281 308.777344 C 537.507812 307.730469 537.457031 306.675781 537.457031 305.625 C 537.457031 304.570312 537.507812 303.519531 537.613281 302.46875 C 537.714844 301.421875 537.871094 300.378906 538.078125 299.34375 C 538.285156 298.3125 538.542969 297.289062 538.851562 296.28125 C 539.160156 295.273438 539.515625 294.28125 539.921875 293.308594 C 540.328125 292.332031 540.78125 291.382812 541.28125 290.453125 C 541.78125 289.523438 542.324219 288.621094 542.914062 287.742188 C 543.503906 286.867188 544.136719 286.019531 544.808594 285.207031 C 545.480469 284.390625 546.191406 283.613281 546.945312 282.867188 C 547.695312 282.121094 548.480469 281.414062 549.300781 280.746094 C 550.117188 280.078125 550.96875 279.449219 551.851562 278.863281 C 552.734375 278.277344 553.644531 277.738281 554.578125 277.238281 C 555.515625 276.742188 556.472656 276.292969 557.453125 275.890625 C 558.433594 275.488281 559.429688 275.132812 560.445312 274.824219 C 561.460938 274.519531 562.488281 274.265625 563.53125 274.058594 C 564.570312 273.851562 565.617188 273.699219 566.675781 273.59375 C 567.730469 273.492188 568.789062 273.441406 569.847656 273.441406 C 570.910156 273.441406 571.96875 273.492188 573.023438 273.59375 C 574.078125 273.699219 575.128906 273.851562 576.167969 274.058594 C 577.210938 274.265625 578.238281 274.519531 579.253906 274.824219 C 580.269531 275.132812 581.265625 275.488281 582.246094 275.890625 C 583.226562 276.292969 584.183594 276.742188 585.121094 277.238281 C 586.054688 277.738281 586.964844 278.277344 587.847656 278.863281 C 588.726562 279.449219 589.578125 280.078125 590.398438 280.746094 C 591.21875 281.414062 592.003906 282.121094 592.753906 282.867188 C 593.503906 283.613281 594.214844 284.390625 594.890625 285.207031 C 595.5625 286.019531 596.195312 286.867188 596.785156 287.742188 C 597.371094 288.621094 597.917969 289.523438 598.417969 290.453125 C 598.917969 291.382812 599.371094 292.332031 599.777344 293.308594 C 600.183594 294.28125 600.539062 295.273438 600.847656 296.28125 C 601.15625 297.289062 601.414062 298.3125 601.621094 299.34375 C 601.828125 300.378906 601.984375 301.421875 602.085938 302.46875 C 602.191406 303.519531 602.242188 304.570312 602.242188 305.625 Z M 602.242188 305.625 " fill-opacity="1" fill-rule="nonzero"/></g><path fill="#ffffff" d="M 548.550781 305.625 L 561.300781 316.410156 C 561.929688 316.941406 561.929688 317.804688 561.300781 318.335938 C 560.671875 318.867188 559.652344 318.867188 559.023438 318.335938 L 545.175781 306.617188 C 544.851562 306.34375 544.695312 305.984375 544.707031 305.625 C 544.695312 305.265625 544.851562 304.902344 545.175781 304.628906 L 559.023438 292.910156 C 559.652344 292.378906 560.671875 292.378906 561.300781 292.910156 C 561.929688 293.441406 561.929688 294.304688 561.300781 294.835938 Z M 548.550781 305.625 " fill-opacity="1" fill-rule="evenodd"/><path fill="#ffffff" d="M 591.144531 305.753906 L 578.398438 316.648438 C 577.769531 317.183594 577.769531 318.054688 578.398438 318.59375 C 579.023438 319.128906 580.042969 319.128906 580.671875 318.59375 L 594.523438 306.757812 C 594.847656 306.480469 595.003906 306.117188 594.992188 305.753906 C 595.003906 305.390625 594.847656 305.027344 594.523438 304.75 L 580.671875 292.914062 C 580.042969 292.378906 579.023438 292.378906 578.398438 292.914062 C 577.769531 293.453125 577.769531 294.324219 578.398438 294.859375 Z M 591.144531 305.753906 " fill-opacity="1" fill-rule="evenodd"/><path fill="#ffffff" d="M 573.902344 292.203125 C 573.042969 291.976562 572.160156 292.480469 571.929688 293.332031 L 565.523438 317.085938 C 565.292969 317.9375 565.804688 318.816406 566.664062 319.046875 C 567.519531 319.273438 568.402344 318.765625 568.632812 317.914062 L 575.039062 294.160156 C 575.269531 293.308594 574.757812 292.429688 573.902344 292.203125 Z M 573.902344 292.203125 " fill-opacity="1" fill-rule="evenodd"/><g fill="#000000" fill-opacity="1"><g transform="translate(248.441438, 486.917165)"><g><path d="M 112.21875 35.15625 C 99.800781 35.15625 89.484375 32.160156 81.265625 26.171875 C 73.054688 20.179688 67.535156 11.84375 64.703125 1.15625 C 53.953125 -0.382812 44.566406 -4.035156 36.546875 -9.796875 C 28.535156 -15.566406 22.289062 -23.535156 17.8125 -33.703125 C 13.34375 -43.878906 11.109375 -56.175781 11.109375 -70.59375 C 11.109375 -86.757812 13.90625 -100.265625 19.5 -111.109375 C 25.101562 -121.960938 32.847656 -130.03125 42.734375 -135.3125 C 52.617188 -140.59375 64.03125 -143.234375 76.96875 -143.234375 C 89.914062 -143.234375 101.3125 -140.609375 111.15625 -135.359375 C 121.007812 -130.109375 128.722656 -122.039062 134.296875 -111.15625 C 139.867188 -100.28125 142.65625 -86.757812 142.65625 -70.59375 C 142.65625 -49.476562 138.128906 -33.269531 129.078125 -21.96875 C 120.035156 -10.664062 107.335938 -3.632812 90.984375 -0.875 L 90.5 1.0625 C 92.488281 4.476562 95.460938 7.101562 99.421875 8.9375 C 103.390625 10.769531 108.007812 11.6875 113.28125 11.6875 C 117.53125 11.6875 121.363281 11.140625 124.78125 10.046875 L 126.71875 10.4375 L 130.671875 32.265625 C 128.609375 33.035156 125.835938 33.707031 122.359375 34.28125 C 118.890625 34.863281 115.507812 35.15625 112.21875 35.15625 Z M 76.96875 -22.21875 C 88.945312 -22.21875 98.09375 -26.0625 104.40625 -33.75 C 110.71875 -41.445312 113.875 -53.726562 113.875 -70.59375 C 113.875 -87.46875 110.71875 -99.765625 104.40625 -107.484375 C 98.09375 -115.210938 88.945312 -119.078125 76.96875 -119.078125 C 64.9375 -119.078125 55.75 -115.210938 49.40625 -107.484375 C 43.0625 -99.765625 39.890625 -87.46875 39.890625 -70.59375 C 39.890625 -53.726562 43.0625 -41.445312 49.40625 -33.75 C 55.75 -26.0625 64.9375 -22.21875 76.96875 -22.21875 Z M 76.96875 -22.21875 "/></g></g></g><g fill="#545454" fill-opacity="1"><g transform="translate(399.109398, 486.917165)"><g><path d="M 135.5 0 L 106.140625 0 L 95.515625 -32.546875 L 41.4375 -32.546875 L 30.8125 0 L 2.125 0 L 50.890625 -141.203125 L 86.734375 -141.203125 Z M 67.125 -111.75 L 48.96875 -56.015625 L 87.796875 -56.015625 L 69.53125 -111.75 Z M 67.125 -111.75 "/></g></g><g transform="translate(536.737046, 486.917165)"><g><path d="M 46.265625 0 L 18.34375 0 L 18.34375 -141.203125 L 46.265625 -141.203125 Z M 46.265625 0 "/></g></g></g><g fill="#000000" fill-opacity="1"><g transform="translate(601.457033, 486.917165)"><g><path d="M 110.203125 -141.203125 L 110.203125 -127.09375 L 65.96875 -127.09375 L 65.96875 0 L 49.453125 0 L 49.453125 -127.09375 L 5.21875 -127.09375 L 5.21875 -141.203125 Z M 110.203125 -141.203125 "/></g></g></g><g fill="#000000" fill-opacity="1"><g transform="translate(703.446358, 486.917165)"><g><path d="M 43.9375 2.03125 C 33.445312 2.03125 25.253906 -0.703125 19.359375 -6.171875 C 13.472656 -11.648438 10.53125 -19.476562 10.53125 -29.65625 C 10.53125 -35.957031 11.832031 -41.28125 14.4375 -45.625 C 17.039062 -49.976562 21.078125 -53.519531 26.546875 -56.25 C 32.023438 -58.988281 39.175781 -61.097656 48 -62.578125 C 55.726562 -63.867188 61.601562 -65.316406 65.625 -66.921875 C 69.644531 -68.535156 72.347656 -70.335938 73.734375 -72.328125 C 75.117188 -74.328125 75.8125 -76.84375 75.8125 -79.875 C 75.8125 -84.695312 74.15625 -88.394531 70.84375 -90.96875 C 67.53125 -93.550781 62.203125 -94.84375 54.859375 -94.84375 C 47.972656 -94.84375 42.066406 -93.503906 37.140625 -90.828125 C 32.210938 -88.160156 27.6875 -84.1875 23.5625 -78.90625 L 21.640625 -78.90625 L 13.90625 -89.8125 C 18.414062 -95.550781 24.144531 -100.109375 31.09375 -103.484375 C 38.050781 -106.867188 45.972656 -108.5625 54.859375 -108.5625 C 67.410156 -108.5625 76.664062 -105.804688 82.625 -100.296875 C 88.582031 -94.796875 91.5625 -87.179688 91.5625 -77.453125 L 91.5625 -20.953125 C 91.5625 -15.035156 94.070312 -12.078125 99.09375 -12.078125 C 100.769531 -12.078125 102.378906 -12.363281 103.921875 -12.9375 L 105.265625 -12.5625 L 107.109375 -1.640625 C 105.953125 -0.867188 104.421875 -0.273438 102.515625 0.140625 C 100.617188 0.554688 98.671875 0.765625 96.671875 0.765625 C 90.816406 0.765625 86.390625 -0.519531 83.390625 -3.09375 C 80.398438 -5.664062 78.488281 -9.460938 77.65625 -14.484375 L 75.625 -14.6875 C 72.59375 -9.082031 68.5 -4.894531 63.34375 -2.125 C 58.195312 0.644531 51.726562 2.03125 43.9375 2.03125 Z M 47.421875 -10.53125 C 53.347656 -10.53125 58.484375 -11.894531 62.828125 -14.625 C 67.171875 -17.363281 70.5 -21.210938 72.8125 -26.171875 C 75.132812 -31.128906 76.296875 -36.859375 76.296875 -43.359375 L 76.296875 -56.890625 L 74.46875 -57.265625 C 72.082031 -55.597656 69.179688 -54.195312 65.765625 -53.0625 C 62.359375 -51.9375 57.597656 -50.925781 51.484375 -50.03125 C 45.296875 -49.1875 40.382812 -47.894531 36.75 -46.15625 C 33.113281 -44.425781 30.519531 -42.222656 28.96875 -39.546875 C 27.425781 -36.878906 26.65625 -33.582031 26.65625 -29.65625 C 26.65625 -23.40625 28.488281 -18.65625 32.15625 -15.40625 C 35.832031 -12.15625 40.921875 -10.53125 47.421875 -10.53125 Z M 47.421875 -10.53125 "/></g></g><g transform="translate(813.645059, 486.917165)"><g><path d="M 42.40625 2.03125 C 34.863281 2.03125 28.9375 -0.109375 24.625 -4.390625 C 20.3125 -8.671875 18.15625 -15.0625 18.15625 -23.5625 L 18.15625 -149.3125 L 33.90625 -149.3125 L 33.90625 -24.625 C 33.90625 -20.1875 34.753906 -16.984375 36.453125 -15.015625 C 38.160156 -13.054688 40.816406 -12.078125 44.421875 -12.078125 C 46.609375 -12.078125 48.832031 -12.429688 51.09375 -13.140625 L 52.4375 -12.75 L 54.28125 -0.390625 C 53.125 0.378906 51.460938 0.972656 49.296875 1.390625 C 47.140625 1.816406 44.84375 2.03125 42.40625 2.03125 Z M 42.40625 2.03125 "/></g></g><g transform="translate(871.593542, 486.917165)"><g><path d="M 18.546875 0 L 18.546875 -149.3125 L 34.28125 -149.3125 L 34.28125 -62.09375 L 36.890625 -62.09375 L 76.484375 -106.53125 L 93 -106.53125 L 93 -104.3125 L 50.796875 -56.5 L 97.0625 -2.421875 L 97.0625 0 L 79.484375 0 L 36.890625 -49.25 L 34.28125 -49.25 L 34.28125 0 Z M 18.546875 0 "/></g></g><g transform="translate(970.685449, 486.917165)"><g><path d="M 48.578125 2.03125 C 41.878906 2.03125 35.679688 1.144531 29.984375 -0.625 C 24.285156 -2.394531 19.472656 -4.828125 15.546875 -7.921875 C 11.617188 -11.015625 8.851562 -14.488281 7.25 -18.34375 L 16.515625 -28.015625 L 18.546875 -28.015625 C 22.023438 -22.734375 26.207031 -18.753906 31.09375 -16.078125 C 35.988281 -13.410156 41.816406 -12.078125 48.578125 -12.078125 C 56.429688 -12.078125 62.398438 -13.601562 66.484375 -16.65625 C 70.578125 -19.71875 72.625 -23.984375 72.625 -29.453125 C 72.625 -33.640625 71.382812 -37.097656 68.90625 -39.828125 C 66.425781 -42.566406 62.421875 -44.613281 56.890625 -45.96875 L 38.921875 -50.421875 C 29.328125 -52.734375 22.320312 -56.398438 17.90625 -61.421875 C 13.5 -66.441406 11.296875 -72.65625 11.296875 -80.0625 C 11.296875 -85.851562 12.773438 -90.890625 15.734375 -95.171875 C 18.703125 -99.460938 22.96875 -102.765625 28.53125 -105.078125 C 34.101562 -107.398438 40.722656 -108.5625 48.390625 -108.5625 C 58.171875 -108.5625 65.878906 -107.191406 71.515625 -104.453125 C 77.148438 -101.710938 81.546875 -97.894531 84.703125 -93 L 75.8125 -84.3125 L 73.890625 -84.3125 C 70.472656 -88.238281 66.75 -91.070312 62.71875 -92.8125 C 58.695312 -94.550781 53.921875 -95.421875 48.390625 -95.421875 C 41.367188 -95.421875 35.988281 -94.164062 32.25 -91.65625 C 28.519531 -89.144531 26.65625 -85.503906 26.65625 -80.734375 C 26.65625 -76.421875 27.972656 -72.941406 30.609375 -70.296875 C 33.253906 -67.660156 37.859375 -65.539062 44.421875 -63.9375 L 62.09375 -59.6875 C 71.375 -57.5 78.070312 -53.859375 82.1875 -48.765625 C 86.3125 -43.679688 88.375 -37.3125 88.375 -29.65625 C 88.375 -23.40625 86.890625 -17.894531 83.921875 -13.125 C 80.960938 -8.363281 76.488281 -4.644531 70.5 -1.96875 C 64.507812 0.695312 57.203125 2.03125 48.578125 2.03125 Z M 48.578125 2.03125 "/></g></g></g><path stroke-linecap="round" transform="matrix(0.75, 0, 0, 0.75, 394.796251, 504.707625)" fill="none" stroke-linejoin="miter" d="M 4.000833 3.999209 L 872.954033 3.999209 " stroke="#000000" stroke-width="8" stroke-opacity="1" stroke-miterlimit="4"/><g fill="#000000" fill-opacity="1"><g transform="translate(394.796251, 551.95762)"><g><path d="M 10.53125 -32.125 L 10.53125 -5.3125 L 24.96875 -5.3125 L 24.96875 0 L 4.171875 0 L 4.171875 -32.125 Z M 10.53125 -32.125 "/></g></g><g transform="translate(420.811873, 551.95762)"><g><path d="M 10.53125 -14.109375 L 10.53125 -5.3125 L 25.859375 -5.3125 L 25.859375 0 L 4.171875 0 L 4.171875 -32.125 L 25.515625 -32.125 L 25.515625 -26.8125 L 10.53125 -26.8125 L 10.53125 -19.296875 L 23.625 -19.296875 L 23.625 -14.109375 Z M 10.53125 -14.109375 "/></g></g><g transform="translate(448.4315, 551.95762)"><g><path d="M 30.828125 0 L 24.140625 0 L 21.734375 -7.40625 L 9.421875 -7.40625 L 7.015625 0 L 0.484375 0 L 11.578125 -32.125 L 19.734375 -32.125 Z M 15.265625 -25.421875 L 11.140625 -12.75 L 19.96875 -12.75 L 15.828125 -25.421875 Z M 15.265625 -25.421875 "/></g></g><g transform="translate(479.742532, 551.95762)"><g><path d="M 4.171875 0 L 4.171875 -32.125 L 17.078125 -32.125 C 20.398438 -32.125 22.90625 -31.359375 24.59375 -29.828125 C 26.289062 -28.296875 27.140625 -26.179688 27.140625 -23.484375 C 27.140625 -21.535156 26.644531 -19.9375 25.65625 -18.6875 C 24.664062 -17.445312 23.1875 -16.5 21.21875 -15.84375 L 21.21875 -15.375 C 22.226562 -14.9375 23.046875 -14.285156 23.671875 -13.421875 C 24.296875 -12.554688 24.882812 -11.273438 25.4375 -9.578125 L 28.65625 0 L 22.125 0 L 18.984375 -9.609375 C 18.660156 -10.566406 18.296875 -11.3125 17.890625 -11.84375 C 17.492188 -12.382812 16.984375 -12.773438 16.359375 -13.015625 C 15.734375 -13.253906 14.925781 -13.375 13.9375 -13.375 L 10.53125 -13.375 L 10.53125 0 Z M 16.296875 -18.40625 C 19.378906 -18.40625 20.921875 -19.84375 20.921875 -22.71875 C 20.921875 -25.632812 19.378906 -27.09375 16.296875 -27.09375 L 10.53125 -27.09375 L 10.53125 -18.40625 Z M 16.296875 -18.40625 "/></g></g><g transform="translate(509.779151, 551.95762)"><g><path d="M 10.328125 0 L 4.171875 0 L 4.171875 -32.125 L 11.453125 -32.125 L 24.34375 -11.421875 L 24.921875 -11.515625 L 24.921875 -32.125 L 31.03125 -32.125 L 31.03125 0 L 24.515625 0 L 10.875 -22.109375 L 10.328125 -22.015625 Z M 10.328125 0 "/></g></g><g transform="translate(545.001316, 551.95762)"><g><path d="M 6.203125 0.203125 C 5.421875 0.203125 4.734375 0.046875 4.140625 -0.265625 C 3.546875 -0.585938 3.09375 -1.023438 2.78125 -1.578125 C 2.46875 -2.140625 2.3125 -2.769531 2.3125 -3.46875 C 2.3125 -4.175781 2.46875 -4.804688 2.78125 -5.359375 C 3.09375 -5.921875 3.546875 -6.359375 4.140625 -6.671875 C 4.734375 -6.992188 5.421875 -7.15625 6.203125 -7.15625 C 6.992188 -7.15625 7.679688 -7 8.265625 -6.6875 C 8.859375 -6.375 9.3125 -5.9375 9.625 -5.375 C 9.945312 -4.820312 10.109375 -4.195312 10.109375 -3.5 C 10.109375 -2.425781 9.75 -1.539062 9.03125 -0.84375 C 8.320312 -0.144531 7.378906 0.203125 6.203125 0.203125 Z M 6.203125 0.203125 "/></g></g><g transform="translate(557.415865, 551.95762)"><g/></g><g transform="translate(568.028657, 551.95762)"><g><path d="M 17.5625 0.46875 C 14.601562 0.46875 11.992188 -0.144531 9.734375 -1.375 C 7.472656 -2.613281 5.707031 -4.46875 4.4375 -6.9375 C 3.164062 -9.40625 2.53125 -12.445312 2.53125 -16.0625 C 2.53125 -19.675781 3.164062 -22.71875 4.4375 -25.1875 C 5.707031 -27.65625 7.472656 -29.503906 9.734375 -30.734375 C 11.992188 -31.960938 14.601562 -32.578125 17.5625 -32.578125 C 20.644531 -32.578125 23.265625 -31.972656 25.421875 -30.765625 C 27.585938 -29.554688 29.132812 -27.71875 30.0625 -25.25 L 25.421875 -22.40625 L 24.875 -22.4375 C 24.1875 -24.101562 23.25 -25.296875 22.0625 -26.015625 C 20.882812 -26.742188 19.382812 -27.109375 17.5625 -27.109375 C 14.894531 -27.109375 12.8125 -26.222656 11.3125 -24.453125 C 9.820312 -22.691406 9.078125 -19.894531 9.078125 -16.0625 C 9.078125 -12.238281 9.820312 -9.441406 11.3125 -7.671875 C 12.8125 -5.910156 14.894531 -5.03125 17.5625 -5.03125 C 21.726562 -5.03125 24.28125 -7.0625 25.21875 -11.125 L 25.78125 -11.125 L 30.453125 -8.671875 C 29.578125 -5.628906 28.078125 -3.34375 25.953125 -1.8125 C 23.828125 -0.289062 21.03125 0.46875 17.5625 0.46875 Z M 17.5625 0.46875 "/></g></g></g><g fill="#000000" fill-opacity="1"><g transform="translate(599.163905, 551.95762)"><g><path d="M 17.515625 0.46875 C 14.566406 0.46875 11.96875 -0.128906 9.71875 -1.328125 C 7.46875 -2.535156 5.707031 -4.375 4.4375 -6.84375 C 3.164062 -9.3125 2.53125 -12.382812 2.53125 -16.0625 C 2.53125 -19.738281 3.164062 -22.8125 4.4375 -25.28125 C 5.707031 -27.75 7.46875 -29.582031 9.71875 -30.78125 C 11.96875 -31.976562 14.566406 -32.578125 17.515625 -32.578125 C 20.453125 -32.578125 23.039062 -31.976562 25.28125 -30.78125 C 27.53125 -29.59375 29.285156 -27.757812 30.546875 -25.28125 C 31.816406 -22.8125 32.453125 -19.738281 32.453125 -16.0625 C 32.453125 -12.382812 31.816406 -9.304688 30.546875 -6.828125 C 29.285156 -4.359375 27.53125 -2.523438 25.28125 -1.328125 C 23.039062 -0.128906 20.453125 0.46875 17.515625 0.46875 Z M 17.515625 -5.046875 C 20.234375 -5.046875 22.3125 -5.921875 23.75 -7.671875 C 25.1875 -9.429688 25.90625 -12.226562 25.90625 -16.0625 C 25.90625 -19.894531 25.1875 -22.691406 23.75 -24.453125 C 22.3125 -26.210938 20.234375 -27.09375 17.515625 -27.09375 C 14.773438 -27.09375 12.679688 -26.210938 11.234375 -24.453125 C 9.796875 -22.691406 9.078125 -19.894531 9.078125 -16.0625 C 9.078125 -12.226562 9.796875 -9.429688 11.234375 -7.671875 C 12.679688 -5.921875 14.773438 -5.046875 17.515625 -5.046875 Z M 17.515625 -5.046875 "/></g></g><g transform="translate(634.166344, 551.95762)"><g><path d="M 15.734375 -32.125 C 20.953125 -32.125 24.929688 -30.773438 27.671875 -28.078125 C 30.421875 -25.378906 31.796875 -21.375 31.796875 -16.0625 C 31.796875 -10.757812 30.421875 -6.753906 27.671875 -4.046875 C 24.929688 -1.347656 20.953125 0 15.734375 0 L 4.171875 0 L 4.171875 -32.125 Z M 15.359375 -5.34375 C 18.671875 -5.34375 21.144531 -6.1875 22.78125 -7.875 C 24.425781 -9.570312 25.25 -12.300781 25.25 -16.0625 C 25.25 -19.820312 24.425781 -22.546875 22.78125 -24.234375 C 21.144531 -25.929688 18.671875 -26.78125 15.359375 -26.78125 L 10.53125 -26.78125 L 10.53125 -5.34375 Z M 15.359375 -5.34375 "/></g></g><g transform="translate(668.509602, 551.95762)"><g><path d="M 10.53125 -14.109375 L 10.53125 -5.3125 L 25.859375 -5.3125 L 25.859375 0 L 4.171875 0 L 4.171875 -32.125 L 25.515625 -32.125 L 25.515625 -26.8125 L 10.53125 -26.8125 L 10.53125 -19.296875 L 23.625 -19.296875 L 23.625 -14.109375 Z M 10.53125 -14.109375 "/></g></g></g><g fill="#000000" fill-opacity="1"><g transform="translate(696.854327, 551.95762)"><g><path d="M 6.203125 0.203125 C 5.421875 0.203125 4.734375 0.046875 4.140625 -0.265625 C 3.546875 -0.585938 3.09375 -1.023438 2.78125 -1.578125 C 2.46875 -2.140625 2.3125 -2.769531 2.3125 -3.46875 C 2.3125 -4.175781 2.46875 -4.804688 2.78125 -5.359375 C 3.09375 -5.921875 3.546875 -6.359375 4.140625 -6.671875 C 4.734375 -6.992188 5.421875 -7.15625 6.203125 -7.15625 C 6.992188 -7.15625 7.679688 -7 8.265625 -6.6875 C 8.859375 -6.375 9.3125 -5.9375 9.625 -5.375 C 9.945312 -4.820312 10.109375 -4.195312 10.109375 -3.5 C 10.109375 -2.425781 9.75 -1.539062 9.03125 -0.84375 C 8.320312 -0.144531 7.378906 0.203125 6.203125 0.203125 Z M 6.203125 0.203125 "/></g></g><g transform="translate(709.268876, 551.95762)"><g/></g><g transform="translate(719.881668, 551.95762)"><g><path d="M 10.53125 -32.125 L 10.53125 -5.3125 L 24.96875 -5.3125 L 24.96875 0 L 4.171875 0 L 4.171875 -32.125 Z M 10.53125 -32.125 "/></g></g><g transform="translate(745.897291, 551.95762)"><g><path d="M 10.53125 -14.109375 L 10.53125 -5.3125 L 25.859375 -5.3125 L 25.859375 0 L 4.171875 0 L 4.171875 -32.125 L 25.515625 -32.125 L 25.515625 -26.8125 L 10.53125 -26.8125 L 10.53125 -19.296875 L 23.625 -19.296875 L 23.625 -14.109375 Z M 10.53125 -14.109375 "/></g></g><g transform="translate(773.516918, 551.95762)"><g><path d="M 30.828125 0 L 24.140625 0 L 21.734375 -7.40625 L 9.421875 -7.40625 L 7.015625 0 L 0.484375 0 L 11.578125 -32.125 L 19.734375 -32.125 Z M 15.265625 -25.421875 L 11.140625 -12.75 L 19.96875 -12.75 L 15.828125 -25.421875 Z M 15.265625 -25.421875 "/></g></g><g transform="translate(804.82795, 551.95762)"><g><path d="M 15.734375 -32.125 C 20.953125 -32.125 24.929688 -30.773438 27.671875 -28.078125 C 30.421875 -25.378906 31.796875 -21.375 31.796875 -16.0625 C 31.796875 -10.757812 30.421875 -6.753906 27.671875 -4.046875 C 24.929688 -1.347656 20.953125 0 15.734375 0 L 4.171875 0 L 4.171875 -32.125 Z M 15.359375 -5.34375 C 18.671875 -5.34375 21.144531 -6.1875 22.78125 -7.875 C 24.425781 -9.570312 25.25 -12.300781 25.25 -16.0625 C 25.25 -19.820312 24.425781 -22.546875 22.78125 -24.234375 C 21.144531 -25.929688 18.671875 -26.78125 15.359375 -26.78125 L 10.53125 -26.78125 L 10.53125 -5.34375 Z M 15.359375 -5.34375 "/></g></g></g><g fill="#000000" fill-opacity="1"><g transform="translate(837.281562, 551.95762)"><g><path d="M 6.203125 0.203125 C 5.421875 0.203125 4.734375 0.046875 4.140625 -0.265625 C 3.546875 -0.585938 3.09375 -1.023438 2.78125 -1.578125 C 2.46875 -2.140625 2.3125 -2.769531 2.3125 -3.46875 C 2.3125 -4.175781 2.46875 -4.804688 2.78125 -5.359375 C 3.09375 -5.921875 3.546875 -6.359375 4.140625 -6.671875 C 4.734375 -6.992188 5.421875 -7.15625 6.203125 -7.15625 C 6.992188 -7.15625 7.679688 -7 8.265625 -6.6875 C 8.859375 -6.375 9.3125 -5.9375 9.625 -5.375 C 9.945312 -4.820312 10.109375 -4.195312 10.109375 -3.5 C 10.109375 -2.425781 9.75 -1.539062 9.03125 -0.84375 C 8.320312 -0.144531 7.378906 0.203125 6.203125 0.203125 Z M 6.203125 0.203125 "/></g></g></g></svg>